<svg version="1.1" xmlns="http://www.w3.org/2000/svg" xmlns:xlink="http://www.w3.org/1999/xlink" width="800px" height="800px" viewBox="0,0,256,256"><g fill="#837ffc" fill-rule="evenodd" stroke="none" stroke-width="1" stroke-linecap="butt" stroke-linejoin="miter" stroke-miterlimit="10" stroke-dasharray="" stroke-dashoffset="0" font-family="none" font-weight="none" font-size="none" text-anchor="none" style="mix-blend-mode: normal"><g transform="translate(0,2.66667) scale(5.33333,5.33333)"><g id="Icons"><g transform="translate(-700,-560)" id="Color-"><path d="M723.9985,560c-13.2525,0 -23.9985,10.78709 -23.9985,24.09664c0,10.64403 6.876,19.67519 16.4145,22.86177c1.2,0.22137 1.638,-0.52256 1.638,-1.16108c0,-0.57226 -0.021,-2.08724 -0.033,-4.09768c-6.6765,1.45625 -8.085,-3.23025 -8.085,-3.23025c-1.0905,-2.78299 -2.664,-3.52391 -2.664,-3.52391c-2.1795,-1.49541 0.165,-1.46529 0.165,-1.46529c2.4075,0.17017 3.675,2.4833 3.675,2.4833c2.142,3.68204 5.6175,2.61884 6.9855,2.0014c0.2175,-1.55715 0.8385,-2.61884 1.524,-3.22122c-5.3295,-0.6084 -10.932,-2.67456 -10.932,-11.90752c0,-2.63089 0.9345,-4.78138 2.4705,-6.46653c-0.2475,-0.60991 -1.071,-3.05858 0.234,-6.37618c0,0 2.016,-0.64756 6.6,2.46975c1.9155,-0.53461 3.9675,-0.80116 6.009,-0.8117c2.0385,0.01054 4.092,0.27709 6.009,0.8117c4.581,-3.11731 6.5925,-2.46975 6.5925,-2.46975c1.3095,3.3176 0.486,5.76627 0.2385,6.37618c1.539,1.68515 2.4675,3.83564 2.4675,6.46653c0,9.25554 -5.6115,11.29309 -10.9575,11.88944c0.861,0.74394 1.629,2.21374 1.629,4.46212c0,3.22122 -0.03,5.81898 -0.03,6.6096c0,0.64454 0.432,1.39451 1.65,1.15807c9.5295,-3.19261 16.3995,-12.21774 16.3995,-22.85876c0,-13.30955 -10.746,-24.09664 -24.0015,-24.09664" id="Github"></path></g></g></g></g></svg>