<svg version="1.1" xmlns="http://www.w3.org/2000/svg" xmlns:xlink="http://www.w3.org/1999/xlink" width="56.7px" height="56.7px" viewBox="0,0,256,256"><g fill="#837ffc" fill-rule="nonzero" stroke="none" stroke-width="1" stroke-linecap="butt" stroke-linejoin="miter" stroke-miterlimit="10" stroke-dasharray="" stroke-dashoffset="0" font-family="none" font-weight="none" font-size="none" text-anchor="none" style="mix-blend-mode: normal"><g transform="translate(0.67725,-5.64374) scale(4.51499,4.51499)"><g><path d="M28.2,16.7c-7,0 -12.8,5.7 -12.8,12.8c0,7.1 5.7,12.8 12.8,12.8c7.1,0 12.8,-5.8 12.8,-12.8c0,-7 -5.8,-12.8 -12.8,-12.8zM28.2,37.7c-4.5,0 -8.2,-3.7 -8.2,-8.2c0,-4.5 3.7,-8.2 8.2,-8.2c4.5,0 8.2,3.7 8.2,8.2c0,4.5 -3.7,8.2 -8.2,8.2z"></path><circle cx="41.5" cy="16.4" r="2.9"></circle><path d="M49,8.9c-2.6,-2.7 -6.3,-4.1 -10.5,-4.1h-20.6c-8.7,0 -14.5,5.8 -14.5,14.5v20.5c0,4.3 1.4,8 4.2,10.7c2.7,2.6 6.3,3.9 10.4,3.9h20.4c4.3,0 7.9,-1.4 10.5,-3.9c2.7,-2.6 4.1,-6.3 4.1,-10.6v-20.6c0,-4.2 -1.4,-7.8 -4,-10.4zM48.6,39.9c0,3.1 -1.1,5.6 -2.9,7.3c-1.8,1.7 -4.3,2.6 -7.3,2.6h-20.4c-3,0 -5.5,-0.9 -7.3,-2.6c-1.8,-1.8 -2.7,-4.3 -2.7,-7.4v-20.5c0,-3 0.9,-5.5 2.7,-7.3c1.7,-1.7 4.3,-2.6 7.3,-2.6h20.6c3,0 5.5,0.9 7.3,2.7c1.7,1.8 2.7,4.3 2.7,7.2v20.6z"></path></g></g></g></svg>