<svg version="1.1" xmlns="http://www.w3.org/2000/svg" xmlns:xlink="http://www.w3.org/1999/xlink" width="800px" height="800px" viewBox="0,0,256,256"><g fill="#837ffc" fill-rule="nonzero" stroke="none" stroke-width="1" stroke-linecap="butt" stroke-linejoin="miter" stroke-miterlimit="10" stroke-dasharray="" stroke-dashoffset="0" font-family="none" font-weight="none" font-size="none" text-anchor="none" style="mix-blend-mode: normal"><g transform="translate(-0.00049,0) scale(0.98323,0.98323)"><g><path d="M34.703,0.183c-19.121,0 -34.689,15.565 -34.703,34.701c0,19.136 15.568,34.704 34.703,34.704c19.128,0 34.688,-15.568 34.688,-34.704c0,-19.134 -15.561,-34.701 -34.688,-34.701z"></path><path d="M60.748,83.531h-52.094c-2.478,0 -4.488,2.009 -4.488,4.489v167.675c0,2.479 2.01,4.488 4.488,4.488h52.093c2.479,0 4.489,-2.01 4.489,-4.488v-167.675c0.001,-2.481 -2.009,-4.489 -4.488,-4.489z"></path><path d="M193.924,81.557c-19.064,0 -35.817,5.805 -46.04,15.271v-8.808c0,-2.48 -2.01,-4.489 -4.489,-4.489h-49.971c-2.479,0 -4.489,2.009 -4.489,4.489v167.675c0,2.479 2.01,4.488 4.489,4.488h52.044c2.479,0 4.489,-2.01 4.489,-4.488v-82.957c0,-23.802 4.378,-38.555 26.227,-38.555c21.526,0.026 23.137,15.846 23.137,39.977v81.535c0,2.479 2.01,4.488 4.49,4.488h52.068c2.478,0 4.488,-2.01 4.488,-4.488v-91.977c-0.001,-38.253 -7.553,-82.161 -66.443,-82.161z"></path></g></g></g></svg>