<svg version="1.1" xmlns="http://www.w3.org/2000/svg" xmlns:xlink="http://www.w3.org/1999/xlink" width="1200" height="800" viewBox="0,0,256,170.65625"><g fill="none" fill-rule="nonzero" stroke="none" stroke-width="1" stroke-linecap="butt" stroke-linejoin="miter" stroke-miterlimit="10" stroke-dasharray="" stroke-dashoffset="0" font-family="none" font-weight="none" font-size="none" text-anchor="none" style="mix-blend-mode: normal"><g transform="translate(29.53888,28.43889) scale(0.83916,0.68817)"><path d="M229.763,25.817c-2.699,-10.162 -10.65,-18.165 -20.748,-20.881c-18.299,-4.936 -91.682,-4.936 -91.682,-4.936c0,0 -73.382,0 -91.682,4.936c-10.098,2.716 -18.051,10.719 -20.748,20.881c-4.903,18.419 -4.903,56.85 -4.903,56.85c0,0 0,38.429 4.903,56.85c2.697,10.163 10.65,18.164 20.747,20.883c18.3,4.934 91.682,4.934 91.682,4.934c0,0 73.383,0 91.682,-4.934c10.098,-2.718 18.049,-10.72 20.748,-20.882c4.904,-18.421 4.904,-56.85 4.904,-56.85c0,0 0,-38.431 -4.904,-56.85" fill="#837ffc"></path><path d="M93.333,117.559l61.333,-34.89l-61.333,-34.894z" fill="#ffffff"></path></g></g></svg>